<?xml version="1.0" standalone="no"?>
<!DOCTYPE svg PUBLIC "-//W3C//DTD SVG 20010904//EN"
 "http://www.w3.org/TR/2001/REC-SVG-20010904/DTD/svg10.dtd">
<svg version="1.0" xmlns="http://www.w3.org/2000/svg"
 width="4401.000000pt" height="1965.000000pt" viewBox="0 0 4401.000000 1965.000000"
 preserveAspectRatio="xMidYMid meet">

<g transform="translate(0.000000,1965.000000) scale(0.100000,-0.100000)"
fill="#FFFFFF" stroke="none">
<path d="M9120 19619 c-755 -45 -1397 -174 -1960 -394 -783 -305 -1395 -766
-1886 -1420 -472 -627 -779 -1388 -899 -2223 -42 -295 -50 -421 -50 -782 0
-428 21 -645 97 -1015 182 -888 612 -1729 1183 -2314 466 -478 1145 -892 1869
-1141 651 -224 1303 -338 2126 -371 1077 -43 2225 164 2935 529 165 85 198
134 215 323 6 68 12 649 14 1439 5 1499 12 1705 67 1908 45 170 128 267 274
321 61 23 282 61 356 61 83 1 131 15 162 50 56 63 25 161 -61 192 -48 17 -356
16 -867 -3 -469 -17 -534 -17 -1020 -1 -545 19 -979 21 -1027 4 -56 -20 -88
-64 -88 -121 0 -86 64 -120 226 -121 274 -1 536 -73 657 -181 102 -90 151
-228 178 -499 15 -160 25 -2579 10 -2710 -19 -173 -86 -264 -258 -353 -387
-199 -1232 -286 -1943 -201 -1020 121 -1935 563 -2659 1284 -432 430 -805
1072 -1039 1790 -229 703 -300 1410 -216 2169 85 780 337 1472 723 1990 266
355 650 658 1132 890 315 152 616 247 979 310 452 78 1107 92 1665 35 914 -92
1688 -387 2075 -790 102 -106 146 -171 210 -309 86 -182 135 -361 165 -595 20
-158 32 -195 68 -226 64 -54 166 -16 196 73 10 27 15 164 21 488 9 497 21 732
51 1055 12 118 23 267 26 331 l5 116 -34 34 c-46 47 -93 59 -271 70 -322 19
-542 50 -1037 143 -318 60 -723 115 -1110 152 -203 19 -1021 28 -1260 13z"/>
<path d="M32259 17608 c-172 -62 -186 -63 -1474 -63 -627 0 -1309 2 -1515 5
-343 5 -378 4 -407 -12 -34 -19 -59 -74 -49 -106 4 -10 18 -29 31 -42 22 -21
39 -24 153 -32 312 -20 439 -87 493 -257 43 -139 44 -210 44 -2536 0 -2216 -3
-2466 -36 -2729 -31 -249 -81 -381 -160 -422 -37 -19 -147 -40 -257 -50 -102
-8 -142 -34 -142 -91 0 -45 14 -69 53 -90 28 -16 58 -18 242 -16 116 2 323 7
460 13 201 9 318 8 600 -5 781 -34 1855 -47 1967 -24 153 33 205 111 248 379
36 223 80 598 80 680 0 119 -22 160 -89 160 -67 0 -87 -35 -127 -222 -67 -317
-174 -455 -408 -527 -147 -45 -232 -53 -619 -58 -244 -4 -407 -1 -480 6 -331
35 -456 115 -511 328 -33 125 -37 304 -34 1398 l3 1080 260 -2 c497 -5 953
-28 1065 -55 122 -29 221 -102 260 -192 27 -60 50 -185 50 -266 0 -78 18 -133
48 -149 30 -16 88 -13 106 5 33 33 39 63 47 244 14 301 38 553 70 754 40 244
31 286 -62 286 -26 0 -46 -14 -113 -80 -45 -43 -98 -86 -119 -95 -77 -32 -227
-46 -597 -55 -201 -5 -512 -9 -693 -10 l-327 0 2 1193 3 1192 165 3 c277 5
964 -16 1075 -33 389 -59 490 -156 511 -490 8 -124 22 -161 68 -180 50 -21 91
-4 117 47 23 46 33 121 54 443 14 220 30 338 61 470 40 173 -1 245 -117 203z"/>
<path d="M16291 17553 c-39 -20 -84 -94 -130 -213 -15 -41 -459 -1254 -986
-2695 -526 -1441 -977 -2667 -1002 -2725 -82 -189 -154 -302 -250 -391 -116
-107 -241 -152 -453 -164 -69 -3 -140 -11 -157 -17 -96 -29 -77 -153 26 -175
44 -10 492 -6 801 6 167 7 310 6 553 -5 246 -11 342 -12 381 -4 53 11 86 35
100 74 10 27 -12 84 -37 98 -12 7 -74 15 -137 18 -135 8 -200 31 -254 91 -45
49 -52 89 -37 212 21 168 61 303 301 1012 287 847 299 883 317 901 12 12 143
14 908 14 l895 0 14 -22 c26 -41 778 -2042 783 -2085 8 -67 -2 -91 -51 -113
-50 -24 -69 -53 -64 -100 5 -48 38 -69 133 -80 102 -12 1330 -34 1448 -26 115
8 171 31 186 78 24 74 -26 118 -133 118 -152 0 -354 54 -454 120 -134 90 -262
261 -392 523 -128 257 -670 1643 -1825 4667 -240 627 -285 739 -329 814 -44
75 -97 99 -155 69z m312 -2450 c219 -621 397 -1131 397 -1135 0 -5 -346 -8
-770 -8 -594 0 -770 3 -770 12 0 7 139 440 309 963 171 522 335 1028 366 1123
31 94 59 172 64 172 4 0 186 -507 404 -1127z"/>
<path d="M21315 17556 c-38 -17 -70 -74 -84 -151 -6 -33 -144 -1266 -306
-2740 -162 -1474 -302 -2736 -311 -2805 -28 -215 -67 -329 -135 -398 -64 -65
-142 -89 -331 -101 -86 -6 -114 -12 -136 -28 -52 -39 -37 -113 31 -150 28 -16
56 -18 207 -16 96 1 270 7 386 13 144 7 274 7 410 0 110 -6 300 -11 424 -13
260 -2 289 4 316 69 34 82 -8 118 -154 128 -138 9 -276 40 -323 71 -21 14 -51
44 -66 67 l-28 42 1 265 c1 242 7 336 67 1026 37 418 108 1233 157 1810 50
578 92 1059 93 1070 3 14 11 4 30 -36 14 -31 118 -257 231 -503 623 -1350 789
-1695 1260 -2631 560 -1110 651 -1281 715 -1337 30 -26 40 -30 78 -25 64 7 91
38 171 196 38 75 523 1100 1078 2278 554 1179 1011 2139 1014 2135 4 -4 21
-162 38 -352 18 -190 104 -1119 192 -2065 88 -945 160 -1765 160 -1822 0 -70
-4 -105 -12 -112 -7 -6 -28 -22 -45 -37 -27 -21 -33 -33 -33 -65 0 -95 77
-118 465 -139 572 -31 1240 -42 1297 -22 75 27 112 108 68 152 -25 25 -39 28
-190 34 -201 9 -392 49 -493 104 -62 33 -153 131 -194 207 -39 75 -78 192
-103 310 -22 107 -28 156 -125 1045 -372 3407 -477 4357 -486 4399 -30 141
-138 181 -219 83 -19 -22 -292 -593 -661 -1382 -346 -740 -887 -1895 -1202
-2567 -314 -672 -575 -1219 -579 -1215 -4 4 -425 867 -936 1917 -511 1051
-1072 2203 -1246 2560 -174 358 -324 661 -334 674 -43 59 -105 81 -157 57z"/>
<path d="M40400 16467 l-45 -22 -993 0 -994 0 -25 -29 c-18 -21 -23 -35 -18
-55 11 -45 28 -53 127 -62 120 -11 145 -17 192 -43 50 -28 74 -77 87 -180 7
-55 9 -639 6 -1712 -5 -1756 -4 -1742 -56 -1860 -24 -53 -59 -71 -154 -80 -34
-3 -74 -10 -89 -16 -30 -11 -49 -53 -38 -83 19 -50 2 -49 629 -51 364 -1 598
2 619 8 56 17 71 81 28 116 -19 14 -49 21 -120 26 -238 16 -268 39 -296 221
-15 96 -26 569 -28 1263 l-2 512 317 -1 c428 0 573 -9 640 -39 60 -25 115 -81
131 -131 6 -19 16 -70 22 -113 5 -44 16 -86 22 -94 34 -41 97 -33 116 15 6 15
14 84 17 153 8 169 24 338 41 435 19 107 18 131 -6 155 -34 34 -66 26 -123
-34 -33 -33 -67 -59 -92 -67 -30 -9 -175 -13 -562 -16 l-523 -5 0 748 0 747
393 -7 c215 -4 415 -12 442 -17 68 -12 170 -64 193 -97 26 -37 41 -85 53 -167
14 -104 45 -138 103 -115 43 16 54 61 71 277 8 109 22 225 30 258 22 91 19
132 -10 160 -29 30 -46 30 -105 2z"/>
<path d="M36005 16249 c-447 -49 -816 -215 -1108 -498 -390 -379 -607 -896
-606 -1446 0 -754 382 -1416 991 -1722 276 -138 572 -203 926 -203 513 0 960
162 1312 473 363 322 576 738 645 1260 17 135 20 399 5 532 -99 863 -686 1454
-1580 1590 -128 19 -462 27 -585 14z m165 -1919 l0 -1681 -37 7 c-78 13 -209
43 -235 53 l-28 11 0 1629 0 1629 68 11 c82 13 123 17 185 19 l47 2 0 -1680z
m273 1659 c33 -6 88 -19 123 -30 l64 -20 -2 -1632 -3 -1632 -65 -12 c-36 -6
-109 -15 -162 -19 l-98 -7 0 1687 0 1686 43 -6 c23 -3 68 -10 100 -15z m-703
-1629 c0 -1273 -2 -1580 -13 -1580 -20 0 -159 82 -236 139 -99 73 -263 248
-333 355 -211 320 -313 665 -325 1101 -9 296 18 503 92 730 107 326 319 593
589 741 73 40 193 92 214 93 9 1 12 -321 12 -1579z m1114 1480 c121 -71 198
-131 301 -234 238 -240 386 -551 450 -945 16 -98 35 -406 30 -476 -2 -22 -6
-87 -10 -145 -26 -445 -185 -830 -440 -1068 -105 -99 -298 -217 -402 -247
l-23 -6 0 1580 c0 1269 3 1581 13 1581 7 0 43 -18 81 -40z"/>
<path d="M382 9794 c-26 -18 -51 -64 -86 -158 -40 -107 -248 -1035 -277 -1238
-21 -140 10 -208 95 -208 69 0 95 29 180 204 81 165 170 308 238 382 124 136
319 209 653 244 111 11 702 25 1563 36 l564 7 -5 -3579 c-6 -4286 -9 -4449
-102 -4841 -46 -194 -110 -291 -216 -331 -65 -24 -213 -50 -329 -58 -107 -7
-144 -19 -170 -51 -26 -34 -26 -96 0 -133 38 -53 76 -60 331 -60 127 0 408 7
623 16 322 13 439 14 666 4 438 -18 1237 -25 1287 -11 91 25 133 96 99 168
-22 47 -59 59 -206 67 -184 10 -462 44 -534 66 -196 61 -280 208 -321 565 -48
425 -55 968 -62 4748 l-6 3427 3964 0 c10681 0 33795 -21 33959 -30 541 -32
948 -124 1198 -272 31 -18 91 -67 133 -108 94 -94 114 -141 129 -307 15 -155
32 -214 71 -247 55 -46 131 -27 165 41 36 73 26 173 -49 478 -127 519 -163
709 -176 917 -6 106 -11 133 -28 156 -35 47 -55 48 -241 13 -236 -44 -440 -68
-692 -80 -288 -15 -40868 -15 -41150 -1 -403 20 -754 51 -873 76 -39 8 -127
37 -195 64 -131 53 -165 59 -200 34z"/>
<path d="M22180 7670 c-675 -48 -1267 -257 -1755 -619 -740 -549 -1234 -1458
-1336 -2455 -15 -153 -6 -578 16 -736 74 -538 224 -986 469 -1398 238 -400
583 -757 971 -1007 709 -457 1716 -616 2649 -419 868 183 1614 699 2085 1441
484 763 660 1771 476 2723 -92 472 -314 956 -606 1317 -151 186 -381 403 -577
542 -461 327 -1003 522 -1657 596 -169 19 -563 27 -735 15z m603 -395 c93 -17
293 -66 337 -84 22 -8 18 -10 -27 -10 l-53 -1 0 -2893 0 -2894 -82 -13 c-46
-7 -167 -15 -270 -17 l-188 -5 0 2974 0 2974 96 -8 c53 -4 137 -15 187 -23z
m-505 -2932 l-3 -2958 -30 3 c-84 9 -296 59 -417 99 l-138 45 0 2844 0 2843
38 10 c130 34 362 68 480 70 l72 1 -2 -2957z m-812 -2700 c-2 -2 -43 19 -92
48 -787 454 -1304 1371 -1393 2469 -47 586 1 1076 151 1540 124 384 310 693
572 956 203 202 421 350 671 455 l90 38 3 -2751 c1 -1513 0 -2753 -2 -2755z
m1882 5463 c243 -104 512 -287 712 -486 477 -473 751 -1087 846 -1890 34 -291
29 -829 -12 -1135 -144 -1097 -672 -1826 -1532 -2114 -51 -17 -95 -31 -98 -31
-2 0 -4 1280 -4 2845 0 1565 2 2845 4 2845 2 0 40 -15 84 -34z"/>
<path d="M26864 7666 c-34 -15 -59 -58 -75 -133 -15 -67 -18 -587 -23 -3273
-3 -1571 -8 -2374 -15 -2455 -23 -245 -59 -370 -126 -435 -45 -44 -163 -77
-319 -91 -67 -6 -131 -13 -144 -15 -39 -8 -62 -40 -62 -88 0 -37 5 -48 30 -69
45 -39 106 -42 520 -26 455 17 411 17 868 0 590 -22 652 -12 652 99 0 71 -28
86 -185 95 -126 7 -267 27 -340 49 -58 18 -125 71 -161 127 -33 53 -71 169
-88 275 -33 197 -34 214 -86 2144 -5 195 -12 445 -15 555 -3 110 -7 272 -10
360 -3 88 -7 255 -10 370 -3 116 -10 354 -15 530 -6 176 -10 367 -10 424 l0
103 48 -53 c680 -764 1823 -2014 2421 -2649 972 -1031 2179 -2260 2376 -2418
84 -68 137 -90 181 -75 40 13 61 55 73 148 13 107 20 943 26 3505 4 1259 10
2185 16 2257 26 328 105 406 433 433 73 6 105 13 125 28 54 40 53 105 -2 146
-28 21 -36 21 -340 17 -488 -7 -765 -7 -1137 3 -368 9 -412 6 -457 -37 -33
-30 -32 -95 2 -127 22 -20 38 -24 167 -32 359 -22 475 -70 543 -222 57 -126
71 -284 85 -1011 5 -291 12 -624 15 -740 3 -115 15 -631 25 -1145 11 -514 22
-1029 25 -1145 2 -115 7 -329 10 -475 l6 -265 -68 70 c-37 39 -352 381 -698
760 -727 797 -845 925 -1395 1515 -943 1011 -2059 2216 -2479 2675 -184 201
-266 280 -309 296 -30 12 -41 11 -78 -5z"/>
<path d="M40625 7669 c-817 -72 -1382 -517 -1525 -1203 -67 -317 -36 -721 76
-1004 121 -305 324 -586 656 -907 79 -77 196 -183 259 -236 62 -52 247 -206
409 -341 531 -441 739 -659 882 -925 147 -274 182 -673 83 -962 -135 -397
-461 -660 -899 -728 -140 -21 -421 -13 -561 17 -432 92 -698 300 -825 648 -42
115 -60 217 -68 389 -9 169 -16 187 -77 199 -48 9 -89 -17 -110 -68 -30 -75
-70 -737 -63 -1037 5 -247 22 -271 242 -365 541 -231 1317 -258 1886 -64 135
46 345 147 447 215 433 289 725 806 762 1345 9 139 -2 361 -24 494 -51 299
-193 598 -422 884 -162 204 -472 496 -803 760 -461 367 -586 474 -810 699
-254 255 -353 401 -412 606 -21 72 -23 100 -22 275 0 182 2 201 27 283 98 321
323 533 662 624 94 25 113 27 325 27 243 0 337 -11 497 -59 278 -85 471 -244
537 -442 30 -91 61 -225 71 -303 15 -126 44 -170 110 -170 43 0 82 44 90 103
3 23 10 209 15 412 5 204 14 426 20 494 17 197 10 209 -137 223 -54 5 -188 26
-298 48 -110 21 -234 43 -275 49 -219 30 -513 38 -725 20z"/>
<path d="M37379 7604 c-146 -61 -304 -67 -1660 -60 -646 3 -1291 9 -1434 12
-178 4 -271 2 -297 -5 -74 -22 -103 -107 -54 -156 26 -26 52 -31 214 -40 56
-3 137 -15 179 -26 193 -49 265 -140 295 -370 19 -150 19 -4739 0 -4999 -22
-297 -61 -491 -116 -572 -45 -68 -100 -88 -284 -108 -128 -14 -139 -17 -162
-40 -14 -14 -20 -34 -20 -64 0 -62 36 -92 123 -101 59 -7 648 9 802 20 39 3
221 -1 405 -9 569 -26 1115 -38 1595 -34 455 3 461 3 510 26 64 29 82 46 112
105 36 72 60 177 93 407 61 428 73 591 46 654 -29 70 -131 65 -161 -8 -8 -19
-26 -89 -40 -154 -46 -219 -102 -339 -197 -427 -96 -89 -196 -130 -400 -162
-95 -15 -178 -18 -533 -18 -367 0 -433 2 -520 19 -213 39 -312 100 -370 228
-70 153 -77 324 -69 1598 4 553 9 1008 13 1011 8 7 655 -7 943 -21 379 -18
503 -48 596 -143 69 -71 111 -200 112 -342 0 -90 14 -139 47 -165 37 -29 79
-26 113 8 34 34 35 43 50 337 15 289 34 488 65 670 32 187 32 226 3 259 -13
14 -30 26 -38 27 -48 5 -66 -5 -138 -77 -88 -89 -124 -108 -253 -129 -116 -19
-596 -34 -1126 -35 l-383 0 0 1215 0 1215 133 0 c359 -1 1004 -21 1107 -35
197 -28 343 -76 415 -138 70 -59 110 -174 124 -358 10 -127 22 -164 62 -185
36 -18 59 -18 87 2 55 38 66 93 87 424 18 295 18 294 57 495 34 172 33 220 -3
256 -24 24 -60 23 -130 -7z"/>
<path d="M5863 7550 c-69 -22 -95 -103 -49 -153 26 -28 48 -33 214 -42 112 -6
227 -32 291 -64 129 -66 173 -165 192 -436 7 -99 11 -879 11 -2315 0 -2483 -4
-2683 -67 -2961 -36 -162 -77 -230 -158 -264 -42 -17 -209 -45 -274 -45 -87 0
-134 -87 -83 -153 38 -48 82 -51 519 -36 480 17 426 17 1026 0 550 -16 584
-13 630 40 34 41 33 83 -3 118 -26 26 -35 28 -142 35 -144 9 -334 32 -381 46
-86 25 -156 101 -188 205 -25 80 -47 247 -62 470 -7 103 -13 627 -16 1323 l-5
1152 1807 0 1807 0 -5 -1197 c-4 -1200 -9 -1355 -43 -1583 -49 -329 -97 -383
-362 -410 -59 -6 -117 -13 -129 -16 -38 -7 -63 -43 -63 -90 0 -57 38 -90 115
-99 30 -4 227 -1 437 6 465 17 413 17 1013 0 550 -16 584 -13 630 40 31 38 32
80 2 115 -22 26 -29 27 -188 40 -308 25 -379 42 -447 107 -85 81 -112 193
-144 587 -16 205 -24 4488 -9 4800 16 317 39 409 121 489 51 50 131 77 269 92
124 13 169 28 194 61 18 25 19 32 8 68 -10 36 -19 45 -59 62 -45 20 -55 21
-367 12 -405 -11 -730 -11 -1210 0 -293 7 -389 6 -418 -3 -95 -32 -105 -152
-14 -179 17 -6 82 -13 144 -16 191 -9 351 -60 409 -129 106 -126 114 -230 114
-1459 l0 -898 -1806 0 -1806 0 5 983 c6 1141 10 1207 79 1339 60 113 119 137
435 174 58 7 97 53 89 102 -3 19 -13 43 -22 53 -34 38 -83 42 -419 33 -391
-11 -690 -11 -1200 -2 -253 5 -401 4 -422 -2z"/>
<path d="M13300 7551 c-67 -22 -100 -74 -80 -126 17 -46 53 -58 189 -67 301
-19 440 -91 491 -255 45 -145 45 -160 45 -2583 0 -2366 -2 -2533 -41 -2810
-27 -196 -69 -317 -126 -366 -40 -32 -111 -52 -242 -65 -137 -14 -164 -23
-183 -65 -18 -37 -12 -75 17 -104 41 -41 81 -44 510 -29 223 8 448 13 500 11
52 -1 239 -7 415 -12 418 -13 586 -13 640 1 88 22 122 96 72 155 -22 26 -30
27 -183 40 -341 28 -397 43 -468 125 -115 135 -141 450 -145 1757 l-1 642 117
-1 c65 0 314 -4 553 -8 l434 -8 41 -45 c22 -25 170 -225 330 -444 280 -387
722 -979 941 -1261 366 -472 584 -682 842 -812 169 -85 326 -123 592 -142 196
-14 1036 -8 1072 8 90 40 91 140 2 173 -14 6 -52 10 -84 10 -238 0 -497 58
-691 156 -371 185 -652 467 -1418 1424 -224 279 -898 1140 -915 1168 -5 9 38
60 136 160 520 532 780 1015 848 1572 15 129 12 362 -6 471 -31 183 -94 353
-187 509 -183 307 -421 510 -752 643 -378 152 -739 196 -1460 181 -490 -11
-912 -11 -1405 -2 -206 4 -386 4 -400 -1z m2159 -351 c492 -44 849 -275 1066
-692 135 -259 205 -581 205 -949 0 -671 -238 -1178 -637 -1353 -134 -58 -222
-71 -503 -71 -326 0 -560 27 -747 86 -150 48 -133 -147 -133 1489 0 1326 1
1409 18 1429 41 51 453 85 731 61z"/>
<path d="M42460 7460 l0 -40 105 0 105 0 0 -275 0 -275 45 0 45 0 0 275 0 275
105 0 105 0 0 40 0 40 -255 0 -255 0 0 -40z"/>
<path d="M43047 7493 c-4 -3 -7 -145 -7 -315 l0 -308 46 0 47 0 -5 255 c-3
140 -5 255 -3 255 1 0 42 -115 90 -255 l87 -255 43 0 43 0 81 243 c45 133 85
248 90 255 4 8 6 -101 4 -242 l-5 -256 46 0 46 0 -2 313 -3 312 -60 0 -60 0
-87 -255 c-47 -140 -88 -258 -90 -262 -2 -5 -43 111 -93 257 l-90 265 -56 0
c-31 0 -59 -3 -62 -7z"/>
</g>
</svg>
